<mxfile host="Electron" agent="Mozilla/5.0 (Windows NT 10.0; Win64; x64) AppleWebKit/537.36 (KHTML, like Gecko) draw.io/27.0.5 Chrome/134.0.6998.205 Electron/35.3.0 Safari/537.36" version="27.0.5">
  <diagram name="Page-1" id="ezleewrUNSsRPxsWc0k8">
    <mxGraphModel dx="498" dy="659" grid="1" gridSize="10" guides="1" tooltips="1" connect="1" arrows="1" fold="1" page="1" pageScale="1" pageWidth="850" pageHeight="1100" math="0" shadow="0">
      <root>
        <mxCell id="0" />
        <mxCell id="1" parent="0" />
        <mxCell id="FfmNM1B1iPESDKwAMkfs-1" value="" style="ellipse;html=1;shape=startState;fillColor=#000000;strokeColor=#ff0000;rotation=-90;" vertex="1" parent="1">
          <mxGeometry x="935" y="324" width="30" height="30" as="geometry" />
        </mxCell>
        <mxCell id="FfmNM1B1iPESDKwAMkfs-2" value="" style="edgeStyle=orthogonalEdgeStyle;html=1;verticalAlign=bottom;endArrow=open;endSize=8;strokeColor=#ff0000;rounded=0;entryX=0;entryY=0.5;entryDx=0;entryDy=0;" edge="1" parent="1" source="FfmNM1B1iPESDKwAMkfs-1" target="FfmNM1B1iPESDKwAMkfs-5">
          <mxGeometry relative="1" as="geometry">
            <mxPoint x="1049" y="336.5" as="targetPoint" />
          </mxGeometry>
        </mxCell>
        <mxCell id="FfmNM1B1iPESDKwAMkfs-3" style="edgeStyle=orthogonalEdgeStyle;rounded=0;orthogonalLoop=1;jettySize=auto;html=1;entryX=0;entryY=0.5;entryDx=0;entryDy=0;" edge="1" parent="1" source="FfmNM1B1iPESDKwAMkfs-5" target="FfmNM1B1iPESDKwAMkfs-8">
          <mxGeometry relative="1" as="geometry" />
        </mxCell>
        <mxCell id="FfmNM1B1iPESDKwAMkfs-5" value="unregistered" style="rounded=1;whiteSpace=wrap;html=1;fillColor=#FFE6CC;" vertex="1" parent="1">
          <mxGeometry x="1006" y="291.5" width="119" height="95" as="geometry" />
        </mxCell>
        <mxCell id="FfmNM1B1iPESDKwAMkfs-7" style="edgeStyle=orthogonalEdgeStyle;rounded=0;orthogonalLoop=1;jettySize=auto;html=1;exitX=0.25;exitY=1;exitDx=0;exitDy=0;entryX=0.5;entryY=0;entryDx=0;entryDy=0;" edge="1" parent="1" source="FfmNM1B1iPESDKwAMkfs-8" target="FfmNM1B1iPESDKwAMkfs-17">
          <mxGeometry relative="1" as="geometry">
            <mxPoint x="1304.25" y="449" as="targetPoint" />
          </mxGeometry>
        </mxCell>
        <mxCell id="FfmNM1B1iPESDKwAMkfs-8" value="regiseterd" style="rounded=1;whiteSpace=wrap;html=1;fillColor=#FFE6CC;" vertex="1" parent="1">
          <mxGeometry x="1410" y="291.5" width="119" height="95" as="geometry" />
        </mxCell>
        <mxCell id="FfmNM1B1iPESDKwAMkfs-9" value="&lt;b&gt;register(info)&lt;/b&gt;" style="text;html=1;align=center;verticalAlign=middle;resizable=0;points=[];autosize=1;strokeColor=none;fillColor=none;" vertex="1" parent="1">
          <mxGeometry x="1210" y="310" width="100" height="30" as="geometry" />
        </mxCell>
        <mxCell id="FfmNM1B1iPESDKwAMkfs-12" value="sm Customer" style="shape=umlFrame;whiteSpace=wrap;html=1;pointerEvents=0;width=65;height=30;" vertex="1" parent="1">
          <mxGeometry x="910" y="220" width="680" height="341" as="geometry" />
        </mxCell>
        <mxCell id="FfmNM1B1iPESDKwAMkfs-19" style="edgeStyle=orthogonalEdgeStyle;rounded=0;orthogonalLoop=1;jettySize=auto;html=1;exitX=1;exitY=0.5;exitDx=0;exitDy=0;entryX=0;entryY=0.5;entryDx=0;entryDy=0;" edge="1" parent="1" source="FfmNM1B1iPESDKwAMkfs-17" target="FfmNM1B1iPESDKwAMkfs-18">
          <mxGeometry relative="1" as="geometry" />
        </mxCell>
        <mxCell id="FfmNM1B1iPESDKwAMkfs-17" value="logged in" style="rounded=1;whiteSpace=wrap;html=1;fillColor=#FFE6CC;" vertex="1" parent="1">
          <mxGeometry x="1135" y="449" width="119" height="95" as="geometry" />
        </mxCell>
        <mxCell id="FfmNM1B1iPESDKwAMkfs-20" style="edgeStyle=orthogonalEdgeStyle;rounded=0;orthogonalLoop=1;jettySize=auto;html=1;exitX=0;exitY=0.75;exitDx=0;exitDy=0;entryX=1;entryY=0.75;entryDx=0;entryDy=0;" edge="1" parent="1" source="FfmNM1B1iPESDKwAMkfs-18" target="FfmNM1B1iPESDKwAMkfs-17">
          <mxGeometry relative="1" as="geometry" />
        </mxCell>
        <mxCell id="FfmNM1B1iPESDKwAMkfs-18" value="logged out" style="rounded=1;whiteSpace=wrap;html=1;fillColor=#FFE6CC;" vertex="1" parent="1">
          <mxGeometry x="1395" y="449" width="119" height="95" as="geometry" />
        </mxCell>
        <mxCell id="FfmNM1B1iPESDKwAMkfs-21" value="&lt;b&gt;login(info)&lt;/b&gt;" style="text;html=1;align=center;verticalAlign=middle;resizable=0;points=[];autosize=1;strokeColor=none;fillColor=none;" vertex="1" parent="1">
          <mxGeometry x="1285" y="514" width="80" height="30" as="geometry" />
        </mxCell>
        <mxCell id="FfmNM1B1iPESDKwAMkfs-23" value="&lt;b&gt;Logout()&lt;/b&gt;" style="text;html=1;align=center;verticalAlign=middle;resizable=0;points=[];autosize=1;strokeColor=none;fillColor=none;" vertex="1" parent="1">
          <mxGeometry x="1290" y="470" width="70" height="30" as="geometry" />
        </mxCell>
      </root>
    </mxGraphModel>
  </diagram>
</mxfile>
